<svg width="11" height="18" viewBox="0 0 11 18" fill="none" xmlns="http://www.w3.org/2000/svg">
<path d="M9.69611 2.93526L9.69637 2.935C9.93092 2.69758 10.05 2.41057 10.05 2.1216C10.05 1.83264 9.93092 1.54563 9.69637 1.30821C9.46183 1.07079 9.17801 0.95 8.89196 0.95C8.60591 0.95 8.32209 1.07079 8.08755 1.30821L1.30363 8.17516C1.06908 8.41258 0.95 8.69959 0.95 8.98856C0.95 9.27752 1.06908 9.56453 1.30363 9.80195L8.08412 16.6654C8.27674 16.9546 8.56495 17.05 8.84673 17.05C9.12819 17.05 9.41355 16.9552 9.60592 16.7605C9.84047 16.523 9.95955 16.236 9.95955 15.9471C9.95955 15.6581 9.84047 15.3711 9.60592 15.1337L3.58059 9.0346L9.69611 2.93526Z" fill="#333D4B" stroke="#333D4B" stroke-width="0.1"/>
</svg>
